<?xml version="1.0" encoding="utf-8"?>

<!-- Uploaded to: SVG Repo, www.svgrepo.com, Generator: SVG Repo Mixer Tools -->
<svg version="1.1" id="Icons" xmlns="http://www.w3.org/2000/svg" xmlns:xlink="http://www.w3.org/1999/xlink" 
	 viewBox="0 0 32 32" xml:space="preserve">
<style type="text/css">
	.st0{fill:none;stroke:#fff;stroke-width:2;stroke-linecap:round;stroke-linejoin:round;stroke-miterlimit:10;}
	.st1{fill:none;stroke:#fff;stroke-width:2;}
	.st2{fill:none;stroke:#fff;stroke-width:2;stroke-miterlimit:10;}
</style>
<path class="st0" d="M23,31H9c-4.4,0-8-3.6-8-8V9c0-4.4,3.6-8,8-8h14c4.4,0,8,3.6,8,8v14C31,27.4,27.4,31,23,31z"/>
<path class="st0" d="M10.5,16H5V9h5.5c1.9,0,3.5,1.6,3.5,3.5v0C14,14.4,12.4,16,10.5,16z"/>
<path class="st0" d="M10,24H5v-8h5c2.2,0,4,1.8,4,4v0C14,22.2,12.2,24,10,24z"/>
<line class="st0" x1="19" y1="11" x2="25" y2="11"/>
<path class="st0" d="M26.3,21.5c-0.3,0.5-0.7,1-1.2,1.4l0,0c-0.9,0.7-2,1.1-3.2,1.1c-2.8,0-5-2.2-5-5s2.2-5,5-5s5,2.2,5,5H17"/>
</svg>