<svg width="1233" height="1233" viewBox="0 0 1233 1233" fill="none" xmlns="http://www.w3.org/2000/svg">
<path d="M411.767 670H369.137V563.423C369.137 560.497 368.562 557.728 367.413 555.116C366.368 552.504 364.853 550.205 362.867 548.22C360.882 546.235 358.583 544.72 355.971 543.675C353.359 542.526 350.59 541.951 347.665 541.951C344.739 541.951 341.97 542.526 339.358 543.675C336.85 544.72 334.604 546.235 332.618 548.22C330.738 550.205 329.223 552.504 328.073 555.116C327.028 557.728 326.506 560.497 326.506 563.423V670H283.718V563.423C283.718 560.497 283.144 557.728 281.994 555.116C280.949 552.504 279.434 550.205 277.449 548.22C275.464 546.235 273.165 544.72 270.553 543.675C267.941 542.526 265.172 541.951 262.246 541.951C259.321 541.951 256.552 542.526 253.939 543.675C251.432 544.72 249.185 546.235 247.2 548.22C245.319 550.205 243.804 552.504 242.655 555.116C241.61 557.728 241.088 560.497 241.088 563.423V670H198.3V502.141H208.644L220.242 514.993C226.198 509.978 232.729 506.112 239.834 503.395C247.043 500.574 254.514 499.163 262.246 499.163C270.083 499.163 277.71 500.626 285.129 503.552C292.652 506.477 299.235 511.545 304.877 518.755C307.489 515.202 310.467 512.172 313.811 509.664C317.154 507.157 320.655 505.119 324.312 503.552C328.073 501.985 331.939 500.887 335.91 500.26C339.88 499.529 343.798 499.163 347.665 499.163C356.546 499.163 364.853 500.835 372.585 504.179C380.421 507.522 387.213 512.12 392.96 517.971C398.811 523.718 403.408 530.51 406.752 538.346C410.096 546.183 411.767 554.542 411.767 563.423V670ZM609.875 584.582C609.875 597.747 607.629 609.763 603.136 620.63C598.643 631.496 592.53 640.848 584.798 648.685C577.066 656.417 567.976 662.425 557.527 666.709C547.183 670.993 536.055 673.135 524.143 673.135C512.336 673.135 501.209 670.94 490.76 666.552C480.416 662.163 471.325 656.051 463.489 648.214C455.757 640.378 449.644 631.079 445.151 620.316C440.658 609.45 438.412 597.538 438.412 584.582V435.374H481.356V513.739C483.655 510.814 486.424 508.202 489.663 505.903C493.006 503.604 496.559 501.723 500.32 500.26C504.186 498.798 508.157 497.701 512.232 496.969C516.307 496.133 520.277 495.715 524.143 495.715C536.055 495.715 547.183 497.962 557.527 502.455C567.976 506.843 577.066 513.008 584.798 520.949C592.53 528.89 598.643 538.294 603.136 549.161C607.629 559.923 609.875 571.73 609.875 584.582ZM566.774 584.582C566.774 578.103 565.625 572.095 563.326 566.558C561.132 560.915 558.102 556.057 554.236 551.982C550.37 547.907 545.825 544.72 540.6 542.421C535.48 540.122 529.995 538.973 524.143 538.973C518.292 538.973 512.754 540.279 507.53 542.891C502.41 545.399 497.917 548.795 494.051 553.079C490.185 557.258 487.155 562.117 484.961 567.655C482.767 573.088 481.669 578.73 481.669 584.582C481.669 591.06 482.767 597.068 484.961 602.606C487.155 608.144 490.185 612.95 494.051 617.025C497.917 621.1 502.41 624.339 507.53 626.742C512.754 629.041 518.292 630.19 524.143 630.19C529.995 630.19 535.48 629.041 540.6 626.742C545.825 624.339 550.37 621.1 554.236 617.025C558.102 612.95 561.132 608.144 563.326 602.606C565.625 597.068 566.774 591.06 566.774 584.582Z" fill="#282626"/>
<path d="M840.105 797.62H829.761L813.148 774.581C809.073 778.238 804.736 781.686 800.139 784.925C795.646 788.06 790.892 790.828 785.876 793.232C780.861 795.53 775.689 797.359 770.36 798.717C765.136 800.076 759.807 800.755 754.374 800.755C742.566 800.755 731.439 798.561 720.99 794.172C710.646 789.679 701.555 783.514 693.719 775.678C685.987 767.737 679.874 758.385 675.381 747.623C670.888 736.756 668.642 724.949 668.642 712.202C668.642 699.559 670.888 687.804 675.381 676.937C679.874 666.071 685.987 656.667 693.719 648.726C701.555 640.785 710.646 634.568 720.99 630.075C731.439 625.582 742.566 623.335 754.374 623.335C758.135 623.335 762.001 623.649 765.972 624.276C770.047 624.903 773.965 625.948 777.726 627.41C781.592 628.769 785.197 630.597 788.541 632.896C791.884 635.195 794.706 638.016 797.004 641.359V562.994H840.105V797.62ZM797.004 712.202C797.004 706.351 795.855 700.708 793.556 695.275C791.362 689.737 788.332 684.878 784.466 680.699C780.6 676.415 776.055 673.019 770.83 670.511C765.71 667.899 760.225 666.593 754.374 666.593C748.522 666.593 742.984 667.638 737.76 669.728C732.64 671.817 728.147 674.848 724.281 678.818C720.52 682.684 717.542 687.438 715.348 693.081C713.153 698.723 712.056 705.097 712.056 712.202C712.056 718.367 713.153 724.218 715.348 729.756C717.542 735.293 720.52 740.152 724.281 744.332C728.147 748.511 732.64 751.802 737.76 754.206C742.984 756.609 748.522 757.81 754.374 757.81C760.225 757.81 765.71 756.557 770.83 754.049C776.055 751.437 780.6 748.041 784.466 743.861C788.332 739.577 791.362 734.719 793.556 729.285C795.855 723.748 797.004 718.053 797.004 712.202ZM992.291 712.202C992.291 706.351 991.142 700.708 988.843 695.275C986.649 689.737 983.619 684.878 979.753 680.699C975.886 676.415 971.341 673.019 966.117 670.511C960.997 667.899 955.511 666.593 949.66 666.593C943.809 666.593 938.271 667.586 933.047 669.571C927.927 671.556 923.434 674.482 919.568 678.348C915.806 682.214 912.828 687.02 910.634 692.767C908.44 698.409 907.343 704.888 907.343 712.202C907.343 719.202 908.44 725.524 910.634 731.166C912.828 736.704 915.806 741.458 919.568 745.429C923.434 749.399 927.927 752.482 933.047 754.676C938.271 756.766 943.809 757.81 949.66 757.81C955.511 757.81 960.997 756.557 966.117 754.049C971.341 751.437 975.886 748.041 979.753 743.861C983.619 739.577 986.649 734.719 988.843 729.285C991.142 723.748 992.291 718.053 992.291 712.202ZM1035.39 776.461C1035.39 788.269 1033.15 799.344 1028.65 809.688C1024.16 820.033 1017.99 829.071 1010.16 836.803C1002.43 844.535 993.336 850.647 982.887 855.14C972.543 859.633 961.467 861.88 949.66 861.88L928.188 861.566V818.779L949.347 819.092C956.034 819.092 961.728 818.204 966.43 816.428C971.132 814.756 975.103 812.405 978.342 809.375C981.581 806.449 984.141 803.053 986.022 799.187C988.007 795.321 989.574 791.246 990.724 786.962C989.052 789.679 986.649 791.926 983.514 793.702C980.379 795.374 976.879 796.732 973.013 797.777C969.252 798.926 965.281 799.71 961.102 800.128C957.027 800.546 953.213 800.755 949.66 800.755C937.853 800.755 926.725 798.717 916.277 794.642C905.932 790.567 896.842 784.768 889.005 777.245C881.273 769.618 875.161 760.318 870.668 749.347C866.175 738.376 863.928 725.994 863.928 712.202C863.928 699.559 866.175 687.804 870.668 676.937C875.161 666.071 881.273 656.667 889.005 648.726C896.842 640.785 905.932 634.568 916.277 630.075C926.725 625.582 937.853 623.335 949.66 623.335C955.094 623.335 960.475 624.015 965.803 625.373C971.132 626.731 976.304 628.612 981.32 631.015C986.335 633.418 991.089 636.24 995.582 639.479C1000.18 642.718 1004.46 646.218 1008.43 649.98L1025.05 630.075H1035.39V776.461Z" fill="#282626"/>
<rect x="198" y="801" width="38" height="411" transform="rotate(-90 198 801)" fill="#282626"/>
<rect x="668" y="482" width="38" height="368" transform="rotate(-90 668 482)" fill="#282626"/>
</svg>
